<svg width="108" height="151" viewBox="0 0 108 151" fill="none" xmlns="http://www.w3.org/2000/svg">
<path d="M69.375 119.234C69.375 117.203 69.0625 115.38 68.4375 113.766C67.8646 112.099 66.7708 110.589 65.1562 109.234C63.5417 107.828 61.276 106.448 58.3594 105.094C55.4427 103.74 51.6667 102.333 47.0312 100.875C41.875 99.2083 36.9792 97.3333 32.3438 95.25C27.7604 93.1667 23.6979 90.7448 20.1562 87.9844C16.6667 85.1719 13.9062 81.9167 11.875 78.2188C9.89583 74.5208 8.90625 70.224 8.90625 65.3281C8.90625 60.5885 9.94792 56.2917 12.0312 52.4375C14.1146 48.5312 17.0312 45.1979 20.7812 42.4375C24.5312 39.625 28.9583 37.4635 34.0625 35.9531C39.2188 34.4427 44.8698 33.6875 51.0156 33.6875C59.401 33.6875 66.7188 35.1979 72.9688 38.2188C79.2188 41.2396 84.0625 45.3802 87.5 50.6406C90.9896 55.901 92.7344 61.9167 92.7344 68.6875H69.4531C69.4531 65.3542 68.75 62.4375 67.3438 59.9375C65.9896 57.3854 63.9062 55.3802 61.0938 53.9219C58.3333 52.4635 54.8438 51.7344 50.625 51.7344C46.5625 51.7344 43.1771 52.3594 40.4688 53.6094C37.7604 54.8073 35.7292 56.4479 34.375 58.5312C33.0208 60.5625 32.3438 62.8542 32.3438 65.4062C32.3438 67.3333 32.8125 69.0781 33.75 70.6406C34.7396 72.2031 36.1979 73.6615 38.125 75.0156C40.0521 76.3698 42.4219 77.6458 45.2344 78.8438C48.0469 80.0417 51.3021 81.2135 55 82.3594C61.1979 84.2344 66.6406 86.3438 71.3281 88.6875C76.0677 91.0312 80.026 93.6615 83.2031 96.5781C86.3802 99.4948 88.776 102.802 90.3906 106.5C92.0052 110.198 92.8125 114.391 92.8125 119.078C92.8125 124.026 91.849 128.453 89.9219 132.359C87.9948 136.266 85.2083 139.573 81.5625 142.281C77.9167 144.99 73.5677 147.047 68.5156 148.453C63.4635 149.859 57.8125 150.562 51.5625 150.562C45.9375 150.562 40.3906 149.833 34.9219 148.375C29.4531 146.865 24.4792 144.599 20 141.578C15.5729 138.557 12.0312 134.703 9.375 130.016C6.71875 125.328 5.39062 119.781 5.39062 113.375H28.9062C28.9062 116.917 29.4531 119.911 30.5469 122.359C31.6406 124.807 33.1771 126.786 35.1562 128.297C37.1875 129.807 39.5833 130.901 42.3438 131.578C45.1562 132.255 48.2292 132.594 51.5625 132.594C55.625 132.594 58.9583 132.021 61.5625 130.875C64.2188 129.729 66.1719 128.141 67.4219 126.109C68.724 124.078 69.375 121.786 69.375 119.234Z" fill="#64FFDA"/>
<path d="M83.375 119.234C83.375 117.203 83.0625 115.38 82.4375 113.766C81.8646 112.099 80.7708 110.589 79.1562 109.234C77.5417 107.828 75.276 106.448 72.3594 105.094C69.4427 103.74 65.6667 102.333 61.0312 100.875C55.875 99.2083 50.9792 97.3333 46.3438 95.25C41.7604 93.1667 37.6979 90.7448 34.1562 87.9844C30.6667 85.1719 27.9062 81.9167 25.875 78.2188C23.8958 74.5208 22.9062 70.224 22.9062 65.3281C22.9062 60.5885 23.9479 56.2917 26.0312 52.4375C28.1146 48.5312 31.0312 45.1979 34.7812 42.4375C38.5312 39.625 42.9583 37.4635 48.0625 35.9531C53.2188 34.4427 58.8698 33.6875 65.0156 33.6875C73.401 33.6875 80.7188 35.1979 86.9688 38.2188C93.2188 41.2396 98.0625 45.3802 101.5 50.6406C104.99 55.901 106.734 61.9167 106.734 68.6875H83.4531C83.4531 65.3542 82.75 62.4375 81.3438 59.9375C79.9896 57.3854 77.9062 55.3802 75.0938 53.9219C72.3333 52.4635 68.8438 51.7344 64.625 51.7344C60.5625 51.7344 57.1771 52.3594 54.4688 53.6094C51.7604 54.8073 49.7292 56.4479 48.375 58.5312C47.0208 60.5625 46.3438 62.8542 46.3438 65.4062C46.3438 67.3333 46.8125 69.0781 47.75 70.6406C48.7396 72.2031 50.1979 73.6615 52.125 75.0156C54.0521 76.3698 56.4219 77.6458 59.2344 78.8438C62.0469 80.0417 65.3021 81.2135 69 82.3594C75.1979 84.2344 80.6406 86.3438 85.3281 88.6875C90.0677 91.0312 94.026 93.6615 97.2031 96.5781C100.38 99.4948 102.776 102.802 104.391 106.5C106.005 110.198 106.812 114.391 106.812 119.078C106.812 124.026 105.849 128.453 103.922 132.359C101.995 136.266 99.2083 139.573 95.5625 142.281C91.9167 144.99 87.5677 147.047 82.5156 148.453C77.4635 149.859 71.8125 150.562 65.5625 150.562C59.9375 150.562 54.3906 149.833 48.9219 148.375C43.4531 146.865 38.4792 144.599 34 141.578C29.5729 138.557 26.0312 134.703 23.375 130.016C20.7188 125.328 19.3906 119.781 19.3906 113.375H42.9062C42.9062 116.917 43.4531 119.911 44.5469 122.359C45.6406 124.807 47.1771 126.786 49.1562 128.297C51.1875 129.807 53.5833 130.901 56.3438 131.578C59.1562 132.255 62.2292 132.594 65.5625 132.594C69.625 132.594 72.9583 132.021 75.5625 130.875C78.2188 129.729 80.1719 128.141 81.4219 126.109C82.724 124.078 83.375 121.786 83.375 119.234Z" fill="#EF294D"/>
</svg>
