<?xml version="1.0" standalone="no"?>
<!DOCTYPE svg PUBLIC "-//W3C//DTD SVG 20010904//EN"
 "http://www.w3.org/TR/2001/REC-SVG-20010904/DTD/svg10.dtd">
<svg version="1.0" xmlns="http://www.w3.org/2000/svg"
 width="320.000000pt" height="320.000000pt" viewBox="0 0 320.000000 320.000000"
 preserveAspectRatio="xMidYMid meet">
<metadata>
Created by potrace 1.16, written by Peter Selinger 2001-2019
</metadata>
<g transform="translate(0.000000,320.000000) scale(0.100000,-0.100000)"
fill="#000000" stroke="none">
<path d="M0 2812 l0 -389 43 -13 c23 -7 37 -15 30 -17 -7 -2 -21 0 -32 6 -11
6 -24 11 -30 11 -8 0 -11 -359 -11 -1205 l0 -1205 328 0 c257 0 332 3 346 13
17 13 16 14 -12 26 -18 8 -37 27 -46 46 -21 44 -21 45 15 35 17 -5 29 -6 27
-2 -50 102 -63 117 -71 85 -3 -11 -5 -8 -6 9 -2 45 34 22 66 -43 30 -59 32
-89 5 -90 -10 0 -6 -5 10 -10 18 -7 29 -20 33 -39 5 -21 12 -28 26 -27 17 1
18 3 5 12 -15 11 -9 30 9 30 6 0 27 4 48 8 55 12 46 28 -13 21 -37 -4 -54 -1
-65 10 -21 21 -19 35 10 48 14 6 25 15 25 19 0 4 14 12 31 18 25 9 29 14 20
24 -6 8 -8 17 -4 20 3 4 1 7 -5 7 -6 0 -9 6 -6 13 3 8 -2 14 -9 14 -9 0 -14
-9 -13 -24 0 -12 4 -23 9 -23 4 0 7 -5 7 -12 0 -9 -3 -9 -11 -1 -6 6 -26 9
-44 6 -26 -4 -36 -1 -49 18 -22 32 -20 38 14 50 17 6 30 15 30 20 0 4 -7 5
-17 2 -10 -4 -14 -2 -9 5 4 7 -4 9 -29 5 -24 -4 -35 -2 -35 6 0 7 -4 10 -9 6
-5 -3 -12 -1 -16 5 -3 5 1 10 9 10 9 0 16 5 16 10 0 6 20 10 44 10 41 0 45 -2
51 -29 4 -21 12 -29 26 -28 10 1 19 5 19 10 0 4 5 5 10 2 6 -3 10 -2 10 3 0
14 -28 23 -35 11 -10 -14 -25 0 -25 23 0 14 5 18 15 14 9 -3 15 0 15 10 0 10
-8 13 -25 10 -14 -3 -25 0 -25 5 0 5 -5 9 -11 9 -5 0 -7 -4 -4 -10 3 -5 1 -10
-4 -10 -6 0 -11 5 -11 10 0 6 -16 10 -35 10 -25 0 -35 4 -35 16 0 8 -5 12 -10
9 -6 -3 -10 3 -10 15 0 12 5 18 10 15 6 -3 10 -1 10 5 0 7 16 10 42 8 39 -3
43 -6 48 -33 6 -30 6 -30 14 10 7 33 10 37 16 20 8 -17 9 -16 9 8 1 16 -3 26
-8 22 -5 -3 -12 -1 -15 4 -4 5 2 12 11 14 10 3 -12 5 -49 6 -67 1 -68 1 -68
29 0 15 -5 33 -12 40 -9 9 -2 12 35 12 45 0 47 -1 47 -29 0 -17 4 -33 10 -36
6 -4 8 6 6 24 -3 29 18 53 27 28 8 -24 12 20 6 63 -4 28 -7 35 -7 18 -3 -44
-22 -33 -22 12 0 27 4 39 12 38 7 -2 13 3 12 10 -1 6 -2 31 -4 55 -2 39 -3 40
-9 12 l-7 -30 -7 25 c-11 40 -8 58 11 63 14 4 14 5 1 6 -19 1 -28 44 -30 136
-1 33 -3 52 -6 42 -8 -29 -27 -14 -28 22 0 18 2 34 5 36 3 2 4 52 3 112 -3
129 1 153 26 153 14 0 20 -10 24 -42 4 -28 2 -45 -6 -50 -8 -5 -6 -8 6 -8 12
0 17 -8 17 -30 0 -16 4 -30 9 -30 5 0 12 -12 16 -27 12 -42 13 -63 3 -63 -19
0 -6 -18 17 -24 21 -5 25 -12 25 -46 0 -22 -5 -40 -11 -40 -5 0 -7 -5 -3 -11
3 -6 1 -15 -7 -19 -9 -6 -6 -10 13 -15 15 -4 29 -14 31 -23 4 -15 5 -15 6 1 0
9 9 17 19 17 14 0 15 2 2 10 -13 9 -13 11 0 20 10 6 11 10 3 10 -8 0 -11 11
-8 33 l5 32 -11 -34 c-13 -42 -20 -36 -12 12 8 50 34 49 58 -2 30 -67 24 -206
-12 -273 -34 -65 -52 -109 -41 -102 7 5 9 2 5 -9 -4 -11 -2 -14 8 -10 21 7 28
-18 15 -53 -8 -21 -8 -45 1 -94 7 -36 16 -67 19 -70 3 -3 6 -18 6 -35 4 -69
17 -145 26 -145 6 0 7 -11 4 -24 -5 -19 -1 -26 13 -31 11 -3 30 -25 43 -48
l23 -42 -21 -23 c-12 -12 -31 -25 -43 -27 -12 -2 -25 -6 -29 -9 -5 -3 -16 11
-25 30 -15 30 -15 35 -2 40 20 8 19 27 -2 51 -10 10 -15 14 -12 8 18 -32 18
-45 -2 -45 -15 0 -19 6 -17 23 2 13 -2 21 -9 19 -7 -1 -13 3 -13 10 0 6 -3 9
-6 5 -11 -11 76 -157 95 -157 9 0 32 13 51 30 44 37 50 37 50 0 l0 -30 457 1
c308 0 462 4 470 11 9 7 13 7 13 -1 0 -7 33 -11 101 -11 84 0 100 2 90 13 -6
8 -8 17 -4 20 6 7 -12 11 -31 8 -13 -3 -36 20 -36 35 0 9 10 14 28 12 46 -3
72 11 70 37 -1 13 -5 22 -9 19 -11 -6 -16 15 -11 47 2 16 8 26 13 23 5 -3 9 6
9 20 0 14 -5 25 -11 23 -17 -3 -20 55 -4 67 10 8 12 16 5 26 -9 13 -10 13 -10
0 -1 -31 -20 14 -20 47 0 22 5 33 18 36 16 4 16 5 0 6 -10 0 -18 8 -18 16 0 8
-4 15 -10 15 -5 0 -10 -7 -10 -15 0 -8 -7 -15 -16 -15 -8 0 -13 4 -9 9 3 5 1
12 -4 15 -5 4 -8 14 -6 24 2 9 4 23 4 30 2 26 31 12 32 -15 1 -28 1 -28 13 5
6 18 15 30 19 26 4 -4 7 -2 7 4 0 5 -5 12 -10 14 -6 2 -13 21 -17 42 -5 30 -2
41 11 48 13 7 14 14 6 31 -10 21 -10 20 10 -2 27 -32 36 -21 10 12 -18 22 -20
35 -14 74 3 27 15 64 25 83 l18 35 2 -55 c1 -68 6 -123 19 -225 6 -44 13 -151
17 -237 5 -137 4 -160 -11 -182 -17 -27 -9 -35 12 -14 17 17 24 5 13 -24 -6
-15 -23 -30 -40 -36 -17 -6 -32 -17 -32 -24 -5 -41 -3 -64 6 -70 14 -10 27
-10 21 0 -3 5 0 26 6 48 6 21 13 33 15 27 3 -9 10 -10 23 -3 24 13 36 -16 12
-29 -16 -9 -15 -11 5 -30 22 -20 32 -21 412 -21 l390 0 -14 47 c-8 26 -13 48
-11 50 1 2 13 -20 26 -47 l23 -50 69 0 68 0 0 1600 0 1600 -531 0 c-494 0
-533 -1 -546 -17 -11 -14 -14 -14 -10 -3 3 11 -3 16 -20 18 -20 2 -27 -6 -45
-47 -26 -65 -48 -74 -48 -21 0 21 4 42 10 45 5 3 10 10 10 15 0 6 -344 10
-880 10 -873 0 -880 0 -880 -20 0 -11 -6 -20 -14 -20 -10 0 -16 -14 -19 -42
-3 -34 -4 -30 -5 20 l-2 62 -110 0 -110 0 0 -388z m1756 -138 c53 -31 59 -51
68 -208 5 -70 12 -116 21 -130 17 -23 20 -56 5 -56 -5 0 -10 5 -10 10 0 6 -4
10 -9 10 -6 0 -13 -21 -17 -47 -6 -42 -15 -56 -71 -111 -74 -71 -101 -82 -137
-55 -29 21 -30 45 -2 49 10 1 26 10 35 19 9 9 12 15 6 14 -16 -4 -65 23 -59
32 3 5 0 9 -5 9 -6 0 -11 7 -11 15 0 9 9 15 25 15 17 0 25 -6 25 -17 0 -15 2
-16 10 -3 5 8 10 10 10 5 0 -6 16 -18 35 -27 35 -16 36 -15 51 8 13 20 14 29
3 61 -7 21 -23 48 -36 61 -29 28 -30 19 -2 -16 12 -16 16 -28 9 -30 -16 -6
-60 26 -60 43 0 16 -34 38 -43 28 -3 -3 -13 1 -21 10 -12 12 -14 34 -9 116 5
89 3 101 -11 101 -9 0 -16 8 -16 21 0 11 4 17 10 14 14 -9 40 13 51 41 7 20
44 35 102 43 5 1 28 -11 53 -25z m75 -854 c19 0 35 -17 24 -28 -3 -3 -11 0
-16 8 -9 13 -10 13 -6 0 2 -10 17 -15 43 -16 57 -1 104 -14 104 -29 0 -7 8
-12 17 -11 11 0 19 -7 21 -19 2 -12 12 -26 22 -33 23 -14 27 0 5 18 -8 7 -15
16 -15 21 0 5 11 -1 25 -13 14 -12 25 -26 25 -30 0 -5 14 -27 32 -49 30 -37
32 -46 36 -134 3 -56 0 -95 -5 -95 -5 0 -8 15 -6 33 3 28 2 29 -7 10 -5 -13
-14 -23 -19 -23 -5 0 -12 -7 -15 -16 -3 -8 -2 -12 4 -9 6 3 10 1 10 -4 0 -6
-4 -11 -9 -11 -4 0 -14 -20 -21 -44 -10 -37 -17 -45 -48 -54 -21 -7 -38 -8
-40 -3 -2 5 -12 7 -22 4 -14 -4 -20 0 -20 13 0 46 -17 -14 -20 -71 -1 -26 -3
-27 -10 -10 -5 11 -9 36 -9 55 -1 37 -16 69 -26 58 -3 -3 -6 -45 -7 -92 0 -83
8 -108 23 -69 6 14 8 12 8 -9 1 -20 5 -26 16 -22 20 8 20 -43 1 -69 -18 -23
-101 -21 -101 3 0 15 -3 16 -127 19 -56 1 -58 2 -59 29 -2 24 -2 23 -9 -8 l-7
-35 -2 42 c0 23 3 44 7 47 5 3 7 31 5 63 l-3 58 17 -45 c14 -38 17 -41 24 -25
8 21 9 17 13 -27 2 -21 29 -26 52 -11 44 28 59 114 31 169 -17 32 -41 49 -58
38 -5 -3 -9 1 -10 8 0 7 -5 -2 -10 -19 -5 -18 -14 -33 -19 -33 -6 0 -11 15
-12 33 -1 23 -3 18 -7 -18 l-6 -50 -14 47 c-10 30 -22 49 -35 54 -20 6 -20 7
2 11 16 3 22 9 18 20 -3 8 -6 20 -7 26 0 7 -4 4 -8 -7 -6 -15 -10 -10 -21 23
-13 41 -7 68 10 41 7 -11 10 -8 10 13 0 15 -6 27 -12 28 -7 1 -2 5 12 9 l25 8
-25 1 c-22 1 -28 8 -38 46 -12 46 -4 85 18 85 16 0 20 -17 7 -28 -14 -12 -11
-92 4 -92 5 0 12 15 17 33 l9 32 17 -32 c9 -18 19 -33 22 -33 3 0 2 5 -1 10
-3 6 -2 10 3 10 12 0 22 -25 22 -56 0 -19 5 -24 24 -24 20 0 23 4 18 22 -5 21
-6 21 -13 2 -7 -18 -10 -16 -13 16 0 8 -14 37 -30 63 -27 45 -28 51 -16 89 7
27 15 37 19 29 6 -8 10 -3 14 16 3 15 11 41 17 57 10 28 11 28 25 10 19 -25
19 -54 -1 -82 -18 -26 -8 -29 24 -6 27 19 30 69 5 97 -13 14 -7 12 21 -7 21
-14 47 -26 57 -26z m-794 -26 c21 -21 23 -28 12 -35 -12 -7 -12 -9 1 -10 8 0
4 -5 -10 -9 -24 -8 -24 -8 7 -9 28 -1 33 -6 46 -46 16 -44 15 -45 -6 -46 -12
0 -31 -5 -42 -10 -14 -6 -8 -7 21 -3 47 6 51 3 60 -54 6 -40 5 -42 -17 -41
-22 0 -23 1 -4 9 18 8 17 9 -7 9 -15 1 -30 -3 -33 -9 -3 -5 0 -10 7 -10 10 0
9 -3 -2 -10 -9 -5 -19 -5 -27 2 -10 8 -13 6 -13 -7 0 -10 -3 -16 -6 -12 -3 3
-5 7 -4 9 0 2 -8 21 -19 43 -20 42 -18 60 5 51 8 -3 14 0 14 7 0 20 -14 35
-35 39 -20 3 -46 46 -38 61 3 5 11 6 19 3 19 -7 18 6 -2 30 -13 16 -15 16 -10
2 3 -12 0 -18 -10 -18 -8 0 -12 5 -9 10 3 6 3 10 -2 10 -4 0 -9 12 -9 26 -1
14 0 23 3 20 3 -3 12 1 20 9 22 23 61 18 90 -11z m-122 -49 c-2 -19 1 -35 5
-35 13 0 28 -31 35 -69 4 -26 2 -31 -15 -31 -12 0 -19 4 -16 9 4 5 -2 7 -13 4
-31 -8 -34 -57 -6 -99 14 -20 25 -44 25 -53 -1 -9 -10 1 -21 22 -12 23 -24 35
-31 31 -8 -5 -9 -1 -5 10 4 10 1 19 -8 22 -8 3 -11 12 -8 21 4 11 2 14 -5 9
-13 -8 -31 23 -24 43 3 8 0 11 -7 7 -7 -5 -9 -1 -5 9 5 11 10 13 19 5 10 -9
12 -7 9 7 -4 14 4 23 27 34 l32 15 -37 0 c-23 0 -31 -3 -23 -9 9 -6 8 -8 -2
-5 -8 2 -19 12 -25 22 -9 14 -6 22 19 41 27 23 61 35 77 28 3 -2 5 -19 3 -38z
m448 -847 c9 2 17 8 17 14 0 5 8 7 17 4 9 -4 20 -1 25 6 6 10 8 10 8 1 0 -7
11 -13 23 -13 22 0 23 -3 18 -37 -6 -34 -10 -38 -44 -44 -20 -3 -40 -3 -43 0
-3 3 -11 6 -17 6 -7 0 -12 8 -12 17 0 9 -4 20 -8 24 -4 4 -7 -6 -7 -23 0 -25
-5 -32 -26 -36 -40 -7 -64 3 -64 27 0 32 12 44 45 48 23 2 29 7 27 23 -2 20
-2 20 10 0 7 -12 21 -19 31 -17z m447 -228 c0 -10 -7 -25 -14 -33 -15 -14 -15
-74 -1 -119 4 -11 1 -18 -7 -18 -9 0 -13 12 -12 33 2 54 -8 75 -31 66 -11 -4
-14 -8 -7 -8 17 -1 15 -48 -3 -55 -18 -7 -20 -27 -2 -23 6 2 2 -1 -10 -7 -13
-5 -23 -13 -23 -18 0 -4 -5 -8 -11 -8 -5 0 -7 5 -4 11 4 6 -2 13 -14 16 -12 3
-21 13 -21 22 0 12 2 13 9 3 7 -11 9 -11 14 2 4 9 16 16 27 16 11 0 20 4 20 9
0 4 -11 6 -25 3 -15 -2 -25 0 -25 7 0 6 12 12 28 12 l27 2 -27 4 c-23 4 -28
10 -30 36 l-1 32 -4 -33 c-2 -18 -8 -30 -13 -27 -5 3 -6 13 -3 21 3 9 0 20 -8
24 -26 17 91 33 130 19 22 -9 23 -8 10 8 -12 15 -12 16 3 10 13 -4 15 -2 11
10 -4 11 -2 14 5 9 7 -4 12 -16 12 -26z m17 -433 c24 -5 33 -2 38 11 6 15 7
15 18 -3 14 -26 17 -96 4 -113 -7 -9 -6 -11 7 -6 12 5 15 2 10 -10 -3 -9 -1
-16 4 -16 12 0 10 -59 -2 -79 -10 -16 -29 -14 -23 3 7 17 -19 29 -44 21 -11
-4 -19 -2 -19 3 0 6 11 13 25 16 27 7 25 36 -4 36 -14 1 -14 2 0 13 15 12 21
57 7 57 -4 0 -5 7 -1 16 4 12 0 14 -18 10 -68 -16 -79 -15 -79 4 0 10 9 21 19
25 13 4 18 12 15 23 -4 10 -3 13 3 6 4 -6 22 -14 40 -17z"/>
<path d="M1606 2565 c-3 -9 1 -30 9 -46 9 -16 13 -34 10 -39 -7 -12 38 -56 65
-63 14 -4 21 3 30 27 8 24 13 28 20 16 5 -8 6 -18 4 -22 -3 -4 4 -8 15 -8 31
0 35 19 11 52 -25 34 -20 50 7 19 22 -26 33 -27 26 -2 -9 36 -46 58 -103 64
-30 3 -62 8 -71 12 -10 4 -19 0 -23 -10z"/>
</g>
</svg>
